<svg width="256" height="256" viewBox="0 0 256 256" fill="none" xmlns="http://www.w3.org/2000/svg">
  <rect width="256" height="256" rx="64" fill="#020617"/>
  <g filter="url(#shadow)">
    <rect x="24" y="74" width="208" height="108" rx="18" fill="url(#plate)" stroke="#111827" stroke-width="6"/>
    <rect x="32" y="82" width="192" height="92" rx="12" stroke="#111827" stroke-width="2.5"/>
  </g>
  <g transform="translate(48 100)" fill="#1d4ed8" stroke="#1d4ed8">
    <circle cx="14" cy="14" r="5" fill="none" stroke-width="2.4"/>
    <line x1="14" y1="-1" x2="14" y2="4" stroke-width="1.5" stroke-linecap="round"/>
    <line x1="14" y1="24" x2="14" y2="29" stroke-width="1.5" stroke-linecap="round"/>
    <line x1="-1" y1="14" x2="4" y2="14" stroke-width="1.5" stroke-linecap="round"/>
    <line x1="24" y1="14" x2="29" y2="14" stroke-width="1.5" stroke-linecap="round"/>
    <line x1="3.5" y1="3.5" x2="7.2" y2="7.2" stroke-width="1.5" stroke-linecap="round"/>
    <line x1="20.8" y1="20.8" x2="24.5" y2="24.5" stroke-width="1.5" stroke-linecap="round"/>
    <line x1="3.5" y1="24.5" x2="7.2" y2="20.8" stroke-width="1.5" stroke-linecap="round"/>
    <line x1="20.8" y1="7.2" x2="24.5" y2="3.5" stroke-width="1.5" stroke-linecap="round"/>
    <text x="14" y="54" text-anchor="middle" font-size="20" font-weight="600" letter-spacing="1.2" fill="#1d4ed8" stroke="none">IND</text>
  </g>
  <text x="95" y="145" fill="#111827" font-family="Arial, Helvetica, sans-serif" font-size="44" font-weight="800" letter-spacing="1.5">RTO</text>
  <circle cx="42" cy="128" r="7.5" fill="url(#bolt)" stroke="#334155" stroke-width="1.2"/>
  <circle cx="214" cy="128" r="7.5" fill="url(#bolt)" stroke="#334155" stroke-width="1.2"/>
  <path d="M40 128H44" stroke="#1E293B" stroke-width="1.2" stroke-linecap="round"/>
  <path d="M42 126V130" stroke="#1E293B" stroke-width="1.2" stroke-linecap="round"/>
  <path d="M212 128H216" stroke="#1E293B" stroke-width="1.2" stroke-linecap="round"/>
  <path d="M214 126V130" stroke="#1E293B" stroke-width="1.2" stroke-linecap="round"/>
  <path d="M38 92C74 82 140 74 220 82" stroke="rgba(255,255,255,0.65)" stroke-width="5" stroke-linecap="round"/>
  <defs>
    <linearGradient id="plate" x1="128" y1="74" x2="128" y2="182" gradientUnits="userSpaceOnUse">
      <stop stop-color="#FEFEFE"/>
      <stop offset="1" stop-color="#F1F5F9"/>
    </linearGradient>
    <linearGradient id="bolt" x1="36" y1="122" x2="49" y2="135" gradientUnits="userSpaceOnUse">
      <stop stop-color="#F8FAFC"/>
      <stop offset="0.4" stop-color="#CBD5E1"/>
      <stop offset="1" stop-color="#64748B"/>
    </linearGradient>
    <filter id="shadow" x="12" y="66" width="232" height="132" filterUnits="userSpaceOnUse" color-interpolation-filters="sRGB">
      <feFlood flood-opacity="0" result="BackgroundImageFix"/>
      <feColorMatrix in="SourceAlpha" type="matrix" values="0 0 0 0 0 0 0 0 0 0 0 0 0 0 0 0 0 0 127 0" result="hardAlpha"/>
      <feOffset dy="8"/>
      <feGaussianBlur stdDeviation="6"/>
      <feComposite in2="hardAlpha" operator="out"/>
      <feColorMatrix type="matrix" values="0 0 0 0 0.0588235 0 0 0 0 0.0901961 0 0 0 0 0.164706 0 0 0 0.26 0"/>
      <feBlend mode="normal" in2="BackgroundImageFix" result="effect1_dropShadow_0_1"/>
      <feBlend mode="normal" in="SourceGraphic" in2="effect1_dropShadow_0_1" result="shape"/>
    </filter>
  </defs>
</svg>
